<?xml version="1.0" standalone="no"?>
<!DOCTYPE svg PUBLIC "-//W3C//DTD SVG 20010904//EN"
 "http://www.w3.org/TR/2001/REC-SVG-20010904/DTD/svg10.dtd">
<svg version="1.0" xmlns="http://www.w3.org/2000/svg"
 width="892.000000pt" height="892.000000pt" viewBox="0 0 892.000000 892.000000"
 preserveAspectRatio="xMidYMid meet">
<metadata>
Created by potrace 1.11, written by Peter Selinger 2001-2013
</metadata>
<g transform="translate(0.000000,892.000000) scale(0.100000,-0.100000)"
fill="#000000" stroke="none">
<path d="M5760 7432 c-128 -10 -372 -82 -504 -149 -214 -108 -426 -286 -677
-568 -24 -27 -53 -59 -64 -71 -191 -201 -253 -300 -370 -584 -14 -36 -33 -79
-41 -96 -26 -58 -75 -218 -81 -264 -3 -25 -11 -61 -17 -80 -15 -44 -28 -42
-115 14 -141 90 -170 107 -281 160 -237 113 -432 162 -685 171 -60 2 -153 7
-205 11 -129 11 -349 11 -440 0 -99 -11 -96 -11 -160 -24 -30 -6 -66 -14 -80
-16 -34 -7 -182 -50 -256 -75 -89 -30 -188 -76 -284 -132 -130 -76 -114 -65
-225 -151 -118 -91 -135 -107 -315 -288 -173 -173 -243 -264 -364 -475 -32
-55 -59 -102 -61 -104 -2 -1 -31 -4 -64 -6 -79 -4 -138 -34 -207 -107 -74 -77
-98 -133 -98 -223 1 -54 7 -84 26 -125 54 -117 136 -177 273 -200 136 -22 147
-20 241 46 167 117 205 229 134 395 -19 45 -28 80 -24 93 7 23 78 110 134 165
80 78 147 120 390 241 289 143 290 144 420 175 81 20 116 23 240 20 154 -3
170 -5 293 -36 112 -28 177 -55 213 -86 52 -47 50 -59 -12 -82 -30 -12 -60
-21 -66 -21 -6 0 -43 -9 -82 -21 -349 -102 -850 -473 -1144 -849 -46 -58 -87
-110 -92 -117 -5 -6 -38 -56 -74 -110 -100 -154 -166 -281 -247 -471 -27 -63
-59 -126 -71 -140 -13 -13 -60 -42 -105 -63 -110 -53 -187 -140 -207 -236 -46
-209 66 -384 270 -422 86 -16 153 10 235 92 97 97 121 179 88 296 -27 94 -18
135 47 211 113 131 355 375 504 508 169 151 251 169 459 98 93 -31 248 -108
271 -135 3 -3 25 -22 50 -42 74 -60 129 -119 124 -134 -6 -14 -64 -44 -127
-64 -21 -7 -48 -27 -63 -47 -28 -36 -28 -51 -5 -169 5 -27 12 -70 16 -95 8
-61 28 -137 64 -245 16 -50 34 -115 40 -145 30 -147 50 -219 82 -285 29 -62
89 -114 134 -116 35 -1 57 -7 69 -19 7 -7 11 -67 11 -175 0 -136 3 -167 16
-180 12 -12 41 -17 120 -19 81 -2 121 -8 179 -29 l75 -26 22 27 c12 15 29 34
37 43 11 13 35 17 107 19 52 1 117 3 144 4 62 2 146 -10 206 -30 82 -26 130
-92 174 -238 24 -75 70 -126 115 -126 26 0 42 9 74 43 23 23 47 60 55 82 23
67 71 159 94 178 12 10 33 22 46 28 33 13 206 12 271 -2 30 -7 109 -12 175
-12 130 0 172 9 295 63 143 63 250 67 369 13 148 -67 207 -66 235 1 15 36 25
40 141 53 234 26 425 -26 595 -161 50 -40 91 -46 128 -20 43 30 52 64 55 213
1 77 5 141 7 143 3 2 19 10 35 18 17 8 40 26 51 39 27 30 89 218 110 336 9 50
18 99 20 110 39 200 51 292 48 380 -4 120 -13 146 -60 176 -28 17 -48 20 -117
19 -105 -3 -107 -2 -107 13 0 13 133 80 190 95 46 12 262 7 322 -7 166 -39
362 -148 487 -272 59 -58 177 -213 206 -268 21 -42 15 -103 -13 -134 -30 -34
-41 -81 -39 -165 6 -191 120 -294 324 -294 89 0 183 44 241 112 31 37 63 114
66 162 9 124 -62 237 -190 305 -72 38 -89 57 -98 103 -3 19 -8 46 -11 60 -3
14 -7 63 -11 110 -14 226 -110 444 -266 611 -19 20 -44 49 -57 65 -39 50 -154
167 -216 220 -105 89 -224 169 -355 237 -137 70 -607 235 -750 262 -152 29
-142 21 -90 67 147 132 222 195 281 234 145 95 325 170 457 191 58 10 256 10
297 1 191 -42 330 -130 561 -355 73 -70 165 -155 207 -188 41 -33 96 -89 122
-124 47 -63 48 -65 32 -90 -47 -76 -59 -106 -59 -156 -1 -126 100 -277 204
-306 66 -17 212 -7 275 21 60 26 119 84 151 152 30 61 31 109 5 217 -10 45
-50 115 -80 142 -57 51 -108 73 -198 85 -27 3 -54 9 -58 14 -5 4 -33 66 -63
136 -30 71 -59 138 -64 149 -4 11 -30 76 -56 145 -75 199 -119 277 -260 467
-60 79 -221 259 -279 312 -178 160 -451 286 -711 327 -21 3 -41 7 -44 9 -3 2
-30 6 -60 10 -30 4 -93 12 -140 19 -88 13 -254 14 -350 2 -91 -12 -289 -53
-385 -81 -191 -56 -366 -143 -496 -248 -69 -56 -89 -56 -90 0 0 21 -2 54 -4
73 -5 49 -5 257 -1 300 2 19 7 64 10 100 6 54 24 147 51 253 15 63 112 333
150 419 95 218 212 302 408 295 75 -3 87 -11 87 -65 0 -57 29 -126 83 -197 90
-119 166 -153 292 -130 122 22 220 98 273 213 24 50 27 69 27 157 0 83 -4 107
-22 140 -81 150 -308 230 -458 161 -31 -14 -67 -26 -79 -26 -24 0 -58 21 -102
63 -38 36 -138 85 -189 92 -22 3 -44 7 -50 8 -5 1 -26 1 -45 -1z m-906 -2377
c9 -9 25 -45 36 -82 11 -36 53 -129 94 -207 41 -77 110 -220 154 -316 43 -96
88 -195 100 -220 11 -25 31 -72 45 -105 39 -93 120 -258 192 -390 35 -66 92
-176 126 -245 33 -69 108 -219 165 -334 58 -114 104 -217 102 -228 -2 -16 -51
-45 -198 -120 -107 -54 -203 -98 -214 -96 -13 2 -33 26 -54 63 -48 84 -281
544 -322 635 -18 41 -46 102 -62 135 -16 33 -50 107 -75 165 -135 311 -301
659 -325 683 -51 51 -82 41 -107 -37 -38 -118 -82 -224 -95 -229 -7 -3 -33 4
-57 15 -24 11 -72 31 -105 43 -91 35 -96 29 -105 -128 -6 -128 -11 -144 -65
-234 -17 -29 -17 -34 -4 -47 8 -8 31 -18 50 -21 278 -45 429 -138 565 -350
142 -219 191 -415 160 -629 -39 -263 -188 -469 -432 -599 -106 -57 -163 -69
-248 -54 -22 4 -67 9 -100 12 -174 14 -253 33 -368 91 -61 30 -87 47 -151 94
-42 31 -156 151 -181 189 -51 82 -69 203 -69 476 0 219 27 309 143 491 24 36
7 67 -54 100 -137 73 -227 183 -297 359 -11 27 -22 58 -24 68 -2 10 -5 26 -8
35 -13 41 -15 130 -5 186 13 72 117 275 156 306 28 22 161 66 228 75 22 3 45
8 52 10 28 9 133 20 194 19 71 -1 148 -31 200 -77 13 -12 50 -45 81 -74 82
-73 96 -68 133 48 27 87 89 229 117 270 10 15 32 33 50 42 152 71 242 112 293
134 33 14 74 31 90 39 53 25 139 53 162 54 12 0 29 -7 37 -15z"/>
</g>
</svg>
